<?xml version="1.0" encoding="UTF-8" standalone="no"?>
<svg width="79px" height="20px" viewBox="0 0 79 20" version="1.1" xmlns="http://www.w3.org/2000/svg" xmlns:xlink="http://www.w3.org/1999/xlink">
    <!-- Generator: Sketch 40.3 (33839) - http://www.bohemiancoding.com/sketch -->
    <title>logo booster grey</title>
    <desc>Created with Sketch.</desc>
    <defs></defs>
    <g id="Page-1" stroke="none" stroke-width="1" fill="none" fill-rule="evenodd">
        <g id="-рассылка-крупный-заголовок" transform="translate(-261.000000, -1350.000000)" fill="#AFAFAF">
            <g id="logo-booster-grey" transform="translate(261.000000, 1350.000000)">
                <path d="M7.32928571,17.4827174 C7.9006677,17.0499689 8.35170807,16.2874845 8.35170807,15.4725311 C8.35170807,14.6758696 7.93580745,13.8787267 7.29462733,13.4108385 L1.62846273,13.4108385 L1.62846273,17.4827174 L7.32928571,17.4827174 Z M1.62846273,11.8863509 L6.94804348,11.8863509 C7.46791925,11.5392857 7.81450311,10.9154348 7.81450311,10.1880901 C7.81450311,9.49444099 7.48524845,8.88840062 6.96537267,8.50715839 L1.62846273,8.50715839 L1.62846273,11.8863509 Z M0,19.007205 L0,7 L7.46791925,7 C8.61164596,7.57186335 9.42563665,8.80175466 9.42563665,10.1880901 C9.42563665,11.0194099 8.9928882,11.8165528 8.43835404,12.4230745 C9.30481366,13.1509006 9.91085404,14.2599689 9.91085404,15.4725311 C9.91085404,16.9975 9.00973602,18.3660248 7.71052795,19.007205 L0,19.007205 Z" id="Fill-1"></path>
                <path d="M20.0224534,14.8170342 C20.0224534,13.0494565 18.5841304,11.6116149 16.833882,11.6116149 C15.0667857,11.6116149 13.6284627,13.0494565 13.6284627,14.8170342 C13.6284627,16.5841304 15.0667857,18.0224534 16.833882,18.0224534 C18.5841304,18.0224534 20.0224534,16.5841304 20.0224534,14.8170342 M12,14.8170342 C12,12.1661491 14.1656677,10 16.833882,10 C19.4852484,10 21.6509161,12.1661491 21.6509161,14.8170342 C21.6509161,17.4679193 19.4852484,19.6340683 16.833882,19.6340683 C14.1656677,19.6340683 12,17.4679193 12,14.8170342" id="Fill-4"></path>
                <path d="M32.0224534,14.8170342 C32.0224534,13.0494565 30.5841304,11.6116149 28.833882,11.6116149 C27.0667857,11.6116149 25.6284627,13.0494565 25.6284627,14.8170342 C25.6284627,16.5841304 27.0667857,18.0224534 28.833882,18.0224534 C30.5841304,18.0224534 32.0224534,16.5841304 32.0224534,14.8170342 M24,14.8170342 C24,12.1661491 26.1656677,10 28.833882,10 C31.4852484,10 33.6509161,12.1661491 33.6509161,14.8170342 C33.6509161,17.4679193 31.4852484,19.6340683 28.833882,19.6340683 C26.1656677,19.6340683 24,17.4679193 24,14.8170342" id="Fill-7"></path>
                <path d="M43.2768168,12.8415062 C42.3935093,12.0790217 40.8685404,11.5071584 39.811941,11.5071584 C38.7543789,11.5071584 37.6284627,11.9918944 37.6284627,12.8756832 C37.6284627,13.8807764 39.3435714,13.8639286 40.0194099,13.9674224 C41.8909627,14.2793478 43.7451863,14.6957298 43.7451863,16.7574224 C43.7451863,19.3563199 40.1931832,19.6162578 39.759472,19.6162578 C38.4082764,19.6162578 36.8486491,19.1488509 36,18.2650621 L36,16.5836491 L36.0861646,16.5836491 C37.2645497,17.6753882 38.6157453,18.108618 39.759472,18.108618 C40.8165528,18.108618 42.1335714,17.6931988 42.1335714,16.7400932 C42.1335714,15.648354 40.1233851,15.5790373 39.811941,15.5443789 C36.935295,15.2151242 36,14.4179814 36,12.8588354 C36.0168478,10.2599379 39.3782298,10 39.811941,10 C41.197795,10 42.4974845,10.3812422 43.3639441,11.1952329 L43.3639441,12.8415062 L43.2768168,12.8415062 Z" id="Fill-10"></path>
                <path d="M52.6707764,19.336941 C51.8043168,19.7355124 51.1804658,19.9781211 50.349146,19.9781211 C48.9801398,19.9781211 47.7497671,19.6661957 46.7798137,18.6091149 L46.7798137,12.076972 L46,12.076972 L46,10.5693323 L46.7798137,10.5693323 L46.7798137,7 L48.3909472,7 L48.3909472,10.5693323 L51.4230745,10.5693323 L51.4230745,12.076972 L48.3909472,12.076972 L48.3909472,17.7773137 C48.9281522,18.2105435 49.6213199,18.3665062 50.349146,18.3665062 C51.0764907,18.3665062 52.3410404,17.9332764 52.5836491,17.8466304 L52.6707764,17.8466304 L52.6707764,19.336941 Z" id="Fill-12"></path>
                <path d="M61.4679193,13.9332453 C61.4852484,12.1829969 59.821646,11.4903106 58.7477174,11.4903106 C57.1707609,11.4903106 56.0443634,12.5815683 55.6631211,13.9332453 L61.4679193,13.9332453 Z M62.4903416,18.0571118 C61.6412112,19.0275466 60.3415217,19.6340683 58.833882,19.6340683 C56.1656677,19.6340683 54,17.4852484 54,14.8170342 C54,12.1483385 56.0795031,10 58.7477174,10 C61.3986025,10 62.9230901,11.7329193 63.0968634,14.0025621 C63.1315217,14.4704503 63.1141925,14.9383385 63.0443944,15.4235559 L55.6116149,15.4235559 C55.8710714,16.9311957 57.2920652,18.1090994 58.8512112,18.1090994 C59.8389752,18.1090994 61.2079814,17.6585404 62.4032143,16.4281677 C62.4032143,16.4281677 62.4730124,16.4628261 62.4903416,16.4281677 L62.4903416,18.0571118 Z" id="Fill-14"></path>
                <path d="M66,19.4083075 L66,11.559146 C66.987764,10.5025466 68.2176553,10 69.6039907,10 C70.4531211,10 71.1284783,10.2426087 71.9082919,10.6411801 L71.9082919,12.2003261 L71.8221273,12.2003261 C71.3022516,11.888882 70.2620186,11.6116149 69.6039907,11.6116149 C68.8588354,11.6116149 68.1656677,11.8368944 67.6289441,12.2696429 L67.6289441,19.4083075 L66,19.4083075 Z" id="Fill-17"></path>
                <g id="Group-21" transform="translate(72.000000, 0.000000)">
                    <polygon id="Fill-19" points="6.3589472 3.63618478 3.29649379 5.40424379 0.234040373 7.1723028 0.234040373 3.63618478 0.234040373 0.10006677 3.29649379 1.86812578"></polygon>
                </g>
            </g>
        </g>
    </g>
</svg>