<svg width="117" height="30" viewBox="0 0 117 30" xmlns="http://www.w3.org/2000/svg"><title>5CFC8B2A-33C6-490A-B641-96E875F94E76</title><g fill="#FFF" fill-rule="evenodd"><path d="M11.483 26.573c.857-.65 1.533-1.793 1.533-3.016 0-1.195-.623-2.39-1.585-3.092h-8.5v6.108h8.552zm-8.551-8.395h7.979c.78-.52 1.3-1.456 1.3-2.547a3.1 3.1 0 0 0-1.274-2.522H2.932v5.07zM.489 28.86V10.85H11.69c1.715.857 2.936 2.702 2.936 4.782 0 1.247-.649 2.442-1.48 3.352 1.3 1.092 2.208 2.756 2.208 4.574 0 2.288-1.352 4.34-3.3 5.302H.489zM30.537 21.972c0-2.651-2.158-4.808-4.783-4.808a4.814 4.814 0 0 0-4.808 4.808 4.814 4.814 0 0 0 4.808 4.809c2.625 0 4.783-2.158 4.783-4.809m-12.034 0c0-3.976 3.249-7.225 7.25-7.225 3.978 0 7.226 3.25 7.226 7.225 0 3.977-3.248 7.226-7.225 7.226-4.002 0-7.251-3.25-7.251-7.226M48.264 21.972c0-2.651-2.157-4.808-4.783-4.808a4.814 4.814 0 0 0-4.808 4.808 4.814 4.814 0 0 0 4.808 4.809c2.626 0 4.783-2.158 4.783-4.809m-12.033 0c0-3.976 3.248-7.225 7.25-7.225 3.977 0 7.226 3.25 7.226 7.225 0 3.977-3.249 7.226-7.226 7.226-4.002 0-7.25-3.25-7.25-7.226M65.264 19.01c-1.325-1.144-3.612-2.002-5.197-2.002-1.586 0-3.275.727-3.275 2.053 0 1.507 2.572 1.482 3.586 1.637 2.807.468 5.589 1.093 5.589 4.185 0 3.899-5.328 4.289-5.979 4.289-2.027 0-4.366-.702-5.639-2.027v-2.522h.13c1.767 1.637 3.794 2.287 5.51 2.287 1.585 0 3.56-.623 3.56-2.053 0-1.637-3.015-1.741-3.482-1.793-4.315-.494-5.718-1.69-5.718-4.029.025-3.898 5.067-4.288 5.718-4.288 2.079 0 4.028.572 5.328 1.793v2.47h-.13zM79.222 28.236c-1.3.598-2.235.962-3.482.962-2.054 0-3.9-.468-5.354-2.054v-9.798h-1.17v-2.261h1.17V9.73h2.416v5.354h4.549v2.261h-4.549v8.55c.806.65 1.846.884 2.938.884 1.09 0 2.988-.65 3.351-.78h.131v2.236zM92.817 20.647c.026-2.626-2.47-3.665-4.08-3.665-2.366 0-4.055 1.637-4.627 3.665h8.707zm1.534 6.186c-1.274 1.455-3.224 2.365-5.485 2.365-4.002 0-7.25-3.223-7.25-7.226s3.118-7.225 7.12-7.225c3.977 0 6.264 2.6 6.524 6.004a9.773 9.773 0 0 1-.078 2.131h-11.15c.39 2.262 2.521 4.028 4.86 4.028 1.482 0 3.535-.675 5.328-2.52 0 0 .105.051.13 0v2.443zM98.927 28.86V17.085c1.482-1.585 3.326-2.34 5.406-2.34 1.274 0 2.287.365 3.456.963v2.338h-.129c-.78-.467-2.34-.883-3.327-.883-1.118 0-2.158.338-2.963.987V28.86h-2.443zM116.89 5.537l-4.593 2.652-4.593 2.652V.233l4.593 2.652z"/></g></svg>